<svg width="110" height="31" xmlns="http://www.w3.org/2000/svg" fill="none">

 <g>
  <title>Layer 1</title>
  <path id="svg_4" fill="#E1E1E6" d="m23.65614,7.76022l0.1406,1.95313c1.2083,-1.51042 2.8281,-2.26563 4.8594,-2.26563c1.7916,0 3.125,0.52604 4,1.57813c0.875,1.05208 1.3229,2.62502 1.3437,4.71872l0,10.9219l-4.5156,0l0,-10.8125c0,-0.9583 -0.2083,-1.651 -0.625,-2.0781c-0.4167,-0.4375 -1.1094,-0.6563 -2.0781,-0.6563c-1.2709,0 -2.224,0.5417 -2.8594,1.625l0,11.9219l-4.5156,0l0,-16.90625l4.25,0z"/>
  <path id="svg_5" fill="#E1E1E6" d="m45.21864,24.97897c-2.4792,0 -4.5,-0.7604 -6.0625,-2.2813c-1.5521,-1.5208 -2.3282,-3.5468 -2.3282,-6.0781l0,-0.4375c0,-1.6979 0.3282,-3.2135 0.9844,-4.5468c0.6563,-1.3438 1.5834,-2.37505 2.7813,-3.0938c1.2083,-0.72917 2.5833,-1.09375 4.125,-1.09375c2.3125,0 4.1302,0.72917 5.4531,2.1875c1.3333,1.45835 2,3.52605 2,6.20315l0,1.8437l-10.7656,0c0.1458,1.1042 0.5833,1.9896 1.3125,2.6563c0.7396,0.6666 1.6719,1 2.7969,1c1.7395,0 3.0989,-0.6302 4.0781,-1.8907l2.2187,2.4844c-0.6771,0.9584 -1.5937,1.7084 -2.75,2.25c-1.1562,0.5313 -2.4375,0.7969 -3.8437,0.7969zm-0.5157,-13.875c-0.8958,0 -1.625,0.3021 -2.1874,0.9063c-0.5521,0.6041 -0.9063,1.4687 -1.0626,2.5937l6.2813,0l0,-0.3594c-0.0208,-1 -0.2917,-1.7708 -0.8125,-2.3125c-0.5208,-0.5521 -1.2604,-0.8281 -2.2188,-0.8281z"/>
  <path id="svg_6" fill="#E1E1E6" d="m69.45294,18.52587l2.2188,-10.76565l4.3594,0l-4.3125,16.90625l-3.7813,0l-3.2031,-10.6406l-3.2031,10.6406l-3.7656,0l-4.3126,-16.90625l4.3594,0l2.2032,10.75005l3.0937,-10.75005l3.2656,0l3.0781,10.76565z"/>
  <path id="svg_7" fill="#E1E1E6" d="m87.43774,19.99457c0,-0.5521 -0.276,-0.9843 -0.828,-1.2969c-0.542,-0.3229 -1.417,-0.6093 -2.626,-0.8593c-4.0203,-0.8438 -6.0308,-2.5521 -6.0308,-5.125c0,-1.5 0.6198,-2.75002 1.8594,-3.75002c1.25,-1.01042 2.8804,-1.51563 4.8904,-1.51563c2.146,0 3.86,0.50521 5.141,1.51563c1.292,1.01041 1.937,2.32292 1.937,3.93752l-4.515,0c0,-0.6459 -0.209,-1.1771 -0.625,-1.5938c-0.417,-0.4271 -1.068,-0.6406 -1.953,-0.6406c-0.761,0 -1.349,0.1719 -1.766,0.5156c-0.4167,0.3438 -0.625,0.7813 -0.625,1.3125c0,0.5 0.2344,0.9063 0.703,1.2188c0.479,0.3021 1.281,0.5677 2.406,0.7969c1.125,0.2187 2.073,0.4687 2.844,0.75c2.386,0.875 3.578,2.3906 3.578,4.5468c0,1.5417 -0.661,2.7917 -1.984,3.75c-1.323,0.9479 -3.031,1.4219 -5.125,1.4219c-1.417,0 -2.6772,-0.25 -3.7814,-0.75c-1.0937,-0.5104 -1.9531,-1.2031 -2.5781,-2.0781c-0.625,-0.8854 -0.9375,-1.8386 -0.9375,-2.8594l4.2812,0c0.0417,0.8021 0.3386,1.4167 0.8907,1.8438c0.5521,0.427 1.2921,0.6406 2.2191,0.6406c0.864,0 1.515,-0.1615 1.953,-0.4844c0.448,-0.3333 0.672,-0.7656 0.672,-1.2969z"/>
 </g>
</svg>
